<svg width="30" height="30" viewBox="0 0 30 30" fill="none" xmlns="http://www.w3.org/2000/svg">
<rect width="30" height="30" rx="15" fill="#2B2B2B"/>
<path d="M13.9071 19.752V21H6.32313V19.08C6.32313 18.568 6.40846 18.1253 6.57913 17.752C6.74979 17.368 6.98979 17.0427 7.29913 16.776C7.61913 16.4987 8.00313 16.2693 8.45113 16.088C8.89913 15.9067 9.40579 15.752 9.97113 15.624C10.9205 15.4107 11.6031 15.1067 12.0191 14.712C12.4458 14.3173 12.6591 13.832 12.6591 13.256V13.16C12.6591 12.872 12.6111 12.5893 12.5151 12.312C12.4191 12.0347 12.2698 11.784 12.0671 11.56C11.8645 11.336 11.6031 11.16 11.2831 11.032C10.9738 10.8933 10.6005 10.824 10.1631 10.824C9.34179 10.824 8.70179 11.0747 8.24313 11.576C7.79513 12.0773 7.57113 12.744 7.57113 13.576V14.28H6.22713V13.48C6.22713 12.968 6.31246 12.4773 6.48313 12.008C6.65379 11.5387 6.90446 11.1227 7.23513 10.76C7.56579 10.3973 7.97646 10.1093 8.46713 9.896C8.95779 9.68267 9.52313 9.576 10.1631 9.576C10.8138 9.576 11.3791 9.67733 11.8591 9.88C12.3391 10.072 12.7391 10.3333 13.0591 10.664C13.3791 10.984 13.6138 11.352 13.7631 11.768C13.9231 12.1733 14.0031 12.5893 14.0031 13.016V13.304C14.0031 14.1573 13.7365 14.888 13.2031 15.496C12.6698 16.0933 11.8165 16.52 10.6431 16.776C9.61913 17 8.86713 17.2987 8.38713 17.672C7.90713 18.0347 7.66713 18.568 7.66713 19.272V19.752H13.9071ZM19.304 19.752V10.392H19.112L17.272 14.6H15.944V14.504L18.04 9.8H20.648V19.752H23.816V21H16.136V19.752H19.304Z" fill="#858584"/>
</svg>
